<svg width="87" height="63" viewBox="0 0 87 63" fill="none" xmlns="http://www.w3.org/2000/svg">
<circle cx="31.5" cy="31.5" r="31.5" fill="#08A6E4"/>
<path d="M83.996 30.5C83.996 30.5 71.175 47 53.496 47C35.817 47 22.996 30.5 22.996 30.5C22.996 30.5 35.817 14 53.496 14C71.175 14 83.996 30.5 83.996 30.5Z" stroke="black" stroke-width="3.5" stroke-miterlimit="10"/>
<path d="M53.496 42.995C60.3995 42.995 65.996 37.3986 65.996 30.495C65.996 23.5914 60.3995 17.995 53.496 17.995C46.5924 17.995 40.996 23.5914 40.996 30.495C40.996 37.3986 46.5924 42.995 53.496 42.995Z" stroke="black" stroke-width="3.5" stroke-miterlimit="10"/>
<path d="M55.504 34.21C54.6582 34.7377 53.6611 34.9696 52.6693 34.8693C51.6774 34.769 50.747 34.3423 50.024 33.656C49.3009 32.9697 48.8262 32.0627 48.6744 31.0774C48.5226 30.0922 48.7023 29.0844 49.1852 28.2123C49.6681 27.3402 50.4269 26.6531 51.3426 26.2589C52.2582 25.8647 53.2789 25.7857 54.2442 26.0343C55.2096 26.283 56.0651 26.8451 56.6765 27.6325C57.2878 28.42 57.6204 29.3881 57.6219 30.385V30.512" stroke="black" stroke-width="3.5" stroke-miterlimit="10" stroke-linecap="round"/>
</svg>
