<svg width="84" height="63" viewBox="0 0 84 63" fill="none" xmlns="http://www.w3.org/2000/svg">
<circle cx="32.015" cy="31.355" r="31.355" fill="#55DFB4"/>
<path d="M83.486 18H32.514C32.447 17.9995 32.3806 18.0122 32.3185 18.0373C32.2564 18.0624 32.1999 18.0996 32.1522 18.1466C32.1045 18.1935 32.0665 18.2495 32.0403 18.3112C32.0142 18.3728 32.0005 18.439 32 18.506V53.494C32.0005 53.561 32.0142 53.6272 32.0403 53.6889C32.0665 53.7506 32.1045 53.8065 32.1522 53.8535C32.1999 53.9005 32.2564 53.9376 32.3185 53.9627C32.3806 53.9879 32.447 54.0005 32.514 54H83.486C83.553 54.0005 83.6194 53.9879 83.6815 53.9627C83.7436 53.9376 83.8001 53.9005 83.8478 53.8535C83.8955 53.8065 83.9335 53.7506 83.9597 53.6889C83.9858 53.6272 83.9995 53.561 84 53.494V18.506C83.9995 18.439 83.9858 18.3728 83.9597 18.3112C83.9335 18.2495 83.8955 18.1935 83.8478 18.1466C83.8001 18.0996 83.7436 18.0624 83.6815 18.0373C83.6194 18.0122 83.553 17.9995 83.486 18ZM34.849 51.192V20.808H81.149V51.192H34.849Z" fill="black"/>
<path d="M34.4139 17H79.5859C79.9838 17 80.3653 16.842 80.6466 16.5607C80.9279 16.2794 81.0859 15.8978 81.0859 15.5C81.0859 15.1022 80.9279 14.7206 80.6466 14.4393C80.3653 14.158 79.9838 14 79.5859 14H34.4139C34.0161 14 33.6346 14.158 33.3533 14.4393C33.072 14.7206 32.9139 15.1022 32.9139 15.5C32.9139 15.8978 33.072 16.2794 33.3533 16.5607C33.6346 16.842 34.0161 17 34.4139 17Z" fill="black"/>
<path d="M37.424 13H77.5719C77.9698 13 78.3513 12.842 78.6326 12.5607C78.9139 12.2794 79.0719 11.8978 79.0719 11.5C79.0719 11.1022 78.9139 10.7206 78.6326 10.4393C78.3513 10.158 77.9698 10 77.5719 10H37.424C37.0261 10 36.6446 10.158 36.3633 10.4393C36.082 10.7206 35.924 11.1022 35.924 11.5C35.924 11.8978 36.082 12.2794 36.3633 12.5607C36.6446 12.842 37.0261 13 37.424 13Z" fill="black"/>
<path d="M40.408 9H74.592C74.9775 8.98747 75.3423 8.82248 75.6062 8.54125C75.8702 8.26002 76.0118 7.88553 76 7.5C76.0118 7.11447 75.8702 6.73998 75.6062 6.45875C75.3423 6.17752 74.9775 6.01253 74.592 6H40.408C40.0224 6.01253 39.6577 6.17752 39.3937 6.45875C39.1297 6.73998 38.9881 7.11447 39 7.5C38.9881 7.88553 39.1297 8.26002 39.3937 8.54125C39.6577 8.82248 40.0224 8.98747 40.408 9Z" fill="black"/>
</svg>
