<svg width="75" height="63" viewBox="0 0 75 63" fill="none" xmlns="http://www.w3.org/2000/svg">
<circle cx="32.085" cy="31.355" r="31.355" fill="#FB3B64"/>
<path d="M52.819 31H53.17C54.5726 31.0269 55.9642 30.747 57.2473 30.1797C58.5304 29.6125 59.674 28.7716 60.598 27.716C64.663 23.047 63.979 15.041 63.924 14.275C63.624 8.54099 60.975 5.79699 58.784 4.50999C57.056 3.52578 55.1026 3.00558 53.114 2.99999H52.937C50.9481 2.99421 48.9915 3.50265 47.257 4.47599C45.04 5.75599 42.35 8.49999 42.084 14.29C42.01 15.045 41.345 23.058 45.41 27.731C46.3342 28.7803 47.4756 29.6161 48.7549 30.1806C50.0342 30.745 51.4209 31.0246 52.819 31ZM44.907 14.546V14.46C45.265 6.74499 50.627 5.91799 52.926 5.91799H53.052C55.897 5.98199 60.731 7.16699 61.06 14.464C61.0541 14.4927 61.0541 14.5223 61.06 14.551C61.06 14.626 61.799 21.945 58.473 25.796C57.7926 26.5536 56.954 27.1524 56.0165 27.5499C55.079 27.9473 54.0656 28.1338 53.048 28.096H52.941C51.9241 28.1415 50.9099 27.9585 49.9729 27.5605C49.036 27.1625 48.2002 26.5595 47.527 25.796C44.179 21.96 44.896 14.611 44.907 14.546Z" fill="black"/>
<path d="M75 44.372V44.072C74.9361 41.951 74.8 36.988 70.149 35.402L70.0401 35.368C66.8771 34.498 63.8728 33.1299 61.14 31.315C60.9847 31.2009 60.8082 31.1189 60.6208 31.074C60.4334 31.029 60.2389 31.0219 60.0487 31.0531C59.8585 31.0844 59.6765 31.1533 59.5133 31.2558C59.3501 31.3584 59.209 31.4925 59.0984 31.6503C58.9877 31.8081 58.9097 31.9864 58.8689 32.1748C58.8281 32.3632 58.8254 32.5578 58.8609 32.7472C58.8963 32.9367 58.9693 33.1171 59.0754 33.278C59.1816 33.4389 59.3188 33.5769 59.479 33.684C62.4728 35.6922 65.7722 37.2018 69.2491 38.154C71.744 39.045 72.022 41.711 72.097 44.17C72.0915 44.2589 72.0915 44.3481 72.097 44.437C72.1165 45.5454 72.0412 46.6534 71.8721 47.749C70.1621 48.723 63.357 52.133 53.0091 52.133C42.6611 52.133 35.854 48.71 34.111 47.725C33.9366 46.63 33.8613 45.5215 33.886 44.413V44.146C33.961 41.702 34.239 39.033 36.734 38.13C40.209 37.1726 43.5077 35.6634 46.504 33.66C46.6643 33.5529 46.8015 33.4149 46.9077 33.254C47.0138 33.0931 47.0868 32.9127 47.1222 32.7232C47.1577 32.5338 47.155 32.3392 47.1142 32.1508C47.0734 31.9624 46.9954 31.7841 46.8847 31.6263C46.7741 31.4685 46.633 31.3344 46.4698 31.2318C46.3066 31.1293 46.1246 31.0604 45.9344 31.0291C45.7442 30.9979 45.5497 31.005 45.3623 31.0499C45.1749 31.0949 44.9984 31.1769 44.8431 31.291C42.1237 33.1117 39.1296 34.4839 35.975 35.355L35.866 35.389C31.218 36.987 31.079 41.946 31 44.059C31.0056 44.1479 31.0056 44.2371 31 44.326V44.36C30.9445 45.9959 31.1281 47.6312 31.545 49.214C31.6555 49.4893 31.8519 49.7215 32.105 49.876C32.428 50.09 40.1271 55.001 53.0161 55.001C65.9051 55.001 73.6 50.079 73.926 49.876C74.1767 49.7148 74.371 49.4796 74.482 49.203C74.8849 47.6257 75.0593 45.9988 75 44.372Z" fill="black"/>
</svg>
